<svg width="15" height="15" viewBox="0 0 15 15" fill="none" xmlns="http://www.w3.org/2000/svg">
<path d="M4.03875 10.9613V12.4219C4.03875 12.5406 4.07812 12.6394 4.15688 12.7181C4.23562 12.7969 4.33437 12.8362 4.45312 12.8362C4.57188 12.8362 4.67063 12.7969 4.74937 12.7181C4.82812 12.6394 4.8675 12.5406 4.8675 12.4219V10.9613H6.32812C6.44688 10.9613 6.54563 10.9219 6.62437 10.8431C6.70312 10.7644 6.7425 10.6656 6.7425 10.5469C6.7425 10.4281 6.70312 10.3294 6.62437 10.2506C6.54563 10.1719 6.44688 10.1325 6.32812 10.1325H4.8675V8.67188C4.8675 8.55313 4.82812 8.45438 4.74937 8.37562C4.67063 8.29688 4.57188 8.2575 4.45312 8.2575C4.33437 8.2575 4.23562 8.29688 4.15688 8.37562C4.07812 8.45438 4.03875 8.55313 4.03875 8.67188V10.1325H2.57812C2.45937 10.1325 2.36063 10.1719 2.28188 10.2506C2.20312 10.3294 2.16375 10.4281 2.16375 10.5469C2.16375 10.6656 2.20312 10.7644 2.28188 10.8431C2.36063 10.9219 2.45937 10.9613 2.57812 10.9613H4.03875ZM9.14062 12.1331H12.4219C12.5406 12.1331 12.6394 12.0938 12.7181 12.015C12.7969 11.9362 12.8362 11.8375 12.8362 11.7188C12.8362 11.6 12.7969 11.5013 12.7181 11.4225C12.6394 11.3438 12.5406 11.3044 12.4219 11.3044H9.14062C9.02188 11.3044 8.92313 11.3438 8.84437 11.4225C8.76562 11.5013 8.72625 11.6 8.72625 11.7188C8.72625 11.8375 8.76562 11.9362 8.84437 12.015C8.92313 12.0938 9.02188 12.1331 9.14062 12.1331ZM9.14062 9.78938H12.4219C12.5406 9.78938 12.6394 9.75 12.7181 9.67125C12.7969 9.5925 12.8362 9.49375 12.8362 9.375C12.8362 9.25625 12.7969 9.1575 12.7181 9.07875C12.6394 9 12.5406 8.96062 12.4219 8.96062H9.14062C9.02188 8.96062 8.92313 9 8.84437 9.07875C8.76562 9.1575 8.72625 9.25625 8.72625 9.375C8.72625 9.49375 8.76562 9.5925 8.84437 9.67125C8.92313 9.75 9.02188 9.78938 9.14062 9.78938ZM10.7812 4.77L11.8003 5.78906C11.8803 5.86969 11.975 5.91281 12.0844 5.91844C12.1937 5.92469 12.2947 5.88156 12.3872 5.78906C12.4766 5.70031 12.5222 5.60344 12.5241 5.49844C12.5259 5.39281 12.4822 5.29375 12.3928 5.20125L11.3691 4.17188L12.3872 3.15281C12.4684 3.07281 12.5119 2.97812 12.5175 2.86875C12.5237 2.75937 12.4803 2.65844 12.3872 2.56594C12.2947 2.47281 12.1969 2.42625 12.0938 2.42625C11.9906 2.42625 11.8928 2.47281 11.8003 2.56594L10.7812 3.58406L9.76219 2.56594C9.68219 2.48469 9.5875 2.44125 9.47812 2.43563C9.36875 2.42937 9.26781 2.47281 9.17531 2.56594C9.08219 2.65844 9.03562 2.75625 9.03562 2.85938C9.03562 2.9625 9.08219 3.06031 9.17531 3.15281L10.1934 4.17188L9.16969 5.20125C9.09281 5.28188 9.05125 5.37688 9.045 5.48625C9.03875 5.59563 9.08219 5.69656 9.17531 5.78906C9.26781 5.88156 9.36563 5.92781 9.46875 5.92781C9.57188 5.92781 9.66969 5.88156 9.76219 5.78906L10.7812 4.77ZM2.8125 4.58625H6.09375C6.2125 4.58625 6.31125 4.54688 6.39 4.46812C6.46875 4.38937 6.50813 4.29062 6.50813 4.17188C6.50813 4.05312 6.46875 3.95437 6.39 3.87562C6.31125 3.79687 6.2125 3.7575 6.09375 3.7575H2.8125C2.69375 3.7575 2.595 3.79687 2.51625 3.87562C2.4375 3.95437 2.39813 4.05312 2.39813 4.17188C2.39813 4.29062 2.4375 4.38937 2.51625 4.46812C2.595 4.54688 2.69375 4.58625 2.8125 4.58625ZM1.51406 15C1.08281 15 0.722812 14.8556 0.434062 14.5669C0.144687 14.2775 0 13.9172 0 13.4859V1.51406C0 1.08281 0.144687 0.722812 0.434062 0.434062C0.722812 0.144687 1.08281 0 1.51406 0H13.4859C13.9172 0 14.2772 0.144687 14.5659 0.434062C14.8553 0.722812 15 1.08281 15 1.51406V13.4859C15 13.9172 14.8556 14.2772 14.5669 14.5659C14.2775 14.8553 13.9172 15 13.4859 15H1.51406ZM1.51406 14.0625H13.4859C13.6297 14.0625 13.7619 14.0025 13.8825 13.8825C14.0025 13.7619 14.0625 13.6297 14.0625 13.4859V1.51406C14.0625 1.37031 14.0025 1.23812 13.8825 1.1175C13.7619 0.9975 13.6297 0.9375 13.4859 0.9375H1.51406C1.37031 0.9375 1.23812 0.9975 1.1175 1.1175C0.9975 1.23812 0.9375 1.37031 0.9375 1.51406V13.4859C0.9375 13.6297 0.9975 13.7619 1.1175 13.8825C1.23812 14.0025 1.37031 14.0625 1.51406 14.0625Z" fill="url(#paint0_linear_237_777)"/>
<defs>
<linearGradient id="paint0_linear_237_777" x1="5.06528e-09" y1="7.37984" x2="7.89846" y2="7.77924" gradientUnits="userSpaceOnUse">
<stop stop-color="#4772E6"/>
<stop offset="1" stop-color="#8E54E9"/>
</linearGradient>
</defs>
</svg>
