<svg width="99" height="15" viewBox="0 0 99 15" fill="none" xmlns="http://www.w3.org/2000/svg">
<path d="M7.875 0L10.3125 4.9375L15.75 5.75L11.8125 9.5625L12.75 15L7.875 12.4375L3 15L3.9375 9.5625L0 5.75L5.4375 4.9375L7.875 0Z" fill="#FFCA28"/>
<path d="M28.625 0L31.0625 4.9375L36.5 5.75L32.5625 9.5625L33.5 15L28.625 12.4375L23.75 15L24.6875 9.5625L20.75 5.75L26.1875 4.9375L28.625 0Z" fill="#FFCA28"/>
<path d="M49.375 0L51.8125 4.9375L57.25 5.75L53.3125 9.5625L54.25 15L49.375 12.4375L44.5 15L45.4375 9.5625L41.5 5.75L46.9375 4.9375L49.375 0Z" fill="#FFCA28"/>
<path d="M70.125 0L72.5625 4.9375L78 5.75L74.0625 9.5625L75 15L70.125 12.4375L65.25 15L66.1875 9.5625L62.25 5.75L67.6875 4.9375L70.125 0Z" fill="#FFCA28"/>
<path d="M90.875 0L93.3125 4.9375L98.75 5.75L94.8125 9.5625L95.75 15L90.875 12.4375L86 15L86.9375 9.5625L83 5.75L88.4375 4.9375L90.875 0Z" fill="#FFCA28"/>
</svg>
