<?xml version="1.0" encoding="UTF-8"?>
<svg id="_Слой_2" data-name="Слой 2" xmlns="http://www.w3.org/2000/svg" viewBox="0 0 800 202.29">
  <defs>
    <style>
      .cls-1 {
        fill: #0065ff;
        fill-rule: evenodd;
      }

      .cls-1, .cls-2 {
        stroke-width: 0px;
      }
    </style>
  </defs>
  <g id="Layer_1" data-name="Layer 1">
    <g id="_Слой_1-2" data-name="Слой_1">
      <path class="cls-1" d="M200.71,101.94c0,38.62-61.73,100.35-100.35,100.35S0,140.56,0,101.94,61.73,1.58,100.35,1.58s100.35,61.73,100.35,100.35ZM140.49,101.94c0,15.45-24.69,40.14-40.14,40.14s-40.14-24.69-40.14-40.14,24.69-40.14,40.14-40.14,40.14,24.69,40.14,40.14Z"/>
      <path class="cls-2" d="M309.99,202.28c37.45,0,60.92-23.47,68.04-54.33h-41.14c-5.01,10.55-12.92,18.46-26.9,18.46-16.88,0-29.27-12.13-29.27-32.97s12.39-32.97,29.27-32.97c13.98,0,21.89,7.91,26.9,18.46h41.14c-7.12-30.86-30.59-54.33-68.04-54.33-40.09,0-69.36,30.59-69.36,68.83s29.27,68.83,69.36,68.83ZM392.08,199.38h39.82V1.58h-39.82v197.8ZM475.48,49.58c13.98,0,25.05-11.08,25.05-24.79S489.46,0,475.48,0s-24.79,11.08-24.79,24.79,11.34,24.79,24.79,24.79ZM455.7,199.38h39.82V67.51h-39.82v131.86ZM580.78,202.28c37.45,0,60.92-23.47,68.04-54.33h-41.14c-5.01,10.55-12.92,18.46-26.9,18.46-16.88,0-29.27-12.13-29.27-32.97s12.39-32.97,29.27-32.97c13.98,0,21.89,7.91,26.9,18.46h41.14c-7.12-30.86-30.59-54.33-68.04-54.33-40.09,0-69.36,30.59-69.36,68.83s29.27,68.83,69.36,68.83h0ZM751.74,199.38h48.26l-60.13-72.26,48.53-59.6h-47.21l-38.5,47.21V1.58h-39.82v197.8h39.82v-58.81l49.05,58.81Z"/>
    </g>
  </g>
</svg>