<svg width="24" height="24" viewBox="0 0 24 24" fill="none" xmlns="http://www.w3.org/2000/svg">
<path d="M17.25 0C18.2446 0 19.1984 0.395088 19.9016 1.09835C20.6049 1.80161 21 2.75544 21 3.75V12.8505C20.5185 12.6185 20.0163 12.4322 19.5 12.294V6H1.5V17.25C1.5 17.8467 1.73705 18.419 2.15901 18.841C2.58097 19.2629 3.15326 19.5 3.75 19.5H9.078C9.177 19.9965 9.3675 20.505 9.63 21H3.75C2.75544 21 1.80161 20.6049 1.09835 19.9016C0.395088 19.1984 0 18.2446 0 17.25V3.75C0 2.75544 0.395088 1.80161 1.09835 1.09835C1.80161 0.395088 2.75544 0 3.75 0H17.25ZM17.25 1.5H3.75C3.15326 1.5 2.58097 1.73705 2.15901 2.15901C1.73705 2.58097 1.5 3.15326 1.5 3.75V4.5H19.5V3.75C19.5 3.15326 19.2629 2.58097 18.841 2.15901C18.419 1.73705 17.8467 1.5 17.25 1.5ZM17.25 13.5C13.104 13.5 10.5 16.977 10.5 18.75C10.5 20.55 13.1085 24 17.25 24C21.3915 24 24 20.523 24 18.75C24 16.95 21.3915 13.5 17.25 13.5ZM17.25 22.5C16.2554 22.5 15.3016 22.1049 14.5983 21.4016C13.8951 20.6984 13.5 19.7446 13.5 18.75C13.5 17.7554 13.8951 16.8016 14.5983 16.0984C15.3016 15.3951 16.2554 15 17.25 15C18.2446 15 19.1984 15.3951 19.9016 16.0984C20.6049 16.8016 21 17.7554 21 18.75C21 19.7446 20.6049 20.6984 19.9016 21.4016C19.1984 22.1049 18.2446 22.5 17.25 22.5ZM19.5 18.75C19.5 19.3467 19.2629 19.919 18.841 20.341C18.419 20.7629 17.8467 21 17.25 21C16.6533 21 16.081 20.7629 15.659 20.341C15.2371 19.919 15 19.3467 15 18.75C15 18.1533 15.2371 17.581 15.659 17.159C16.081 16.7371 16.6533 16.5 17.25 16.5C17.8467 16.5 18.419 16.7371 18.841 17.159C19.2629 17.581 19.5 18.1533 19.5 18.75Z" fill="url(#paint0_linear_2491_30461)"/>
<defs>
<linearGradient id="paint0_linear_2491_30461" x1="-0.49315" y1="12" x2="11.8158" y2="-0.246416" gradientUnits="userSpaceOnUse">
<stop stop-color="#4772E6"/>
<stop offset="1" stop-color="#8E54E9"/>
</linearGradient>
</defs>
</svg>
