<svg xmlns="http://www.w3.org/2000/svg" width="25" height="28" viewBox="0 0 25 28" fill="none">
  <path d="M12.5 1.07756L12.9758 0.0868033C12.8254 0.0295294 12.6636 0 12.5 0C12.3364 0 12.1746 0.0295294 12.0242 0.0868033L12.5 1.07756ZM12.5 26.9234L11.9 27.8582C12.0827 27.9511 12.2895 28 12.5 28C12.7105 28 12.9173 27.9511 13.1 27.8582L12.5 26.9234ZM12.0226 0.0882394L1.7129 4.02112L2.66129 6.00264L12.9742 2.06832L12.0226 0.0882394ZM0 6.33145V16.1816H2.41935V6.33145H0ZM5.48548 24.5959L11.9 27.8582L13.1 25.9887L6.68548 22.7249L5.48548 24.5959ZM13.1 27.8582L19.5145 24.5959L18.3145 22.7249L11.9 25.9887L13.1 27.8582ZM25 16.1802V6.33289H22.5806V16.183L25 16.1802ZM23.2903 4.02256L12.9758 0.0882394L12.0242 2.06688L22.3371 6.00264L23.2903 4.02256ZM25 6.33289C25 5.32777 24.3274 4.41886 23.2903 4.02256L22.3371 6.00264C22.4095 6.03044 22.4712 6.07655 22.5145 6.13525C22.5578 6.19395 22.5808 6.26267 22.5806 6.33289H25ZM19.5145 24.5959C21.1808 23.7482 22.5657 22.5235 23.529 21.0458C24.4924 19.5682 24.9998 17.8901 25 16.1816H22.5806C22.5803 17.5102 22.1856 18.8151 21.4364 19.9642C20.6872 21.1133 19.6102 22.0657 18.3145 22.7249L19.5145 24.5959ZM0 16.1816C0.000172209 17.8901 0.50763 19.5682 1.47095 21.0458C2.43428 22.5235 3.81923 23.7482 5.48548 24.5959L6.68548 22.7249C5.38952 22.0656 4.31237 21.1129 3.56318 19.9636C2.81399 18.8142 2.41939 17.509 2.41935 16.1802L0 16.1816ZM1.70968 4.02112C1.20227 4.21493 0.769852 4.53696 0.465966 4.94736C0.16208 5.35775 7.22026e-05 5.83991 0 6.33145H2.41935C2.41935 6.18787 2.51613 6.0572 2.66452 5.99977L1.70968 4.02112Z" fill="#595959"/>
  <path d="M17.3383 11.1279L10.8867 16.8715L7.66089 13.9997" stroke="#595959" stroke-width="1.5" stroke-linecap="round" stroke-linejoin="round"/>
</svg>