<svg width="25" height="22" viewBox="0 0 25 22" fill="none" xmlns="http://www.w3.org/2000/svg">
<path fill-rule="evenodd" clip-rule="evenodd" d="M4.46528 0H2.67917V8.93495H4.46528V0ZM15.3606 8.93495H9.64502L8.93057 7.95211V6.16512L9.64502 5.36097H15.3606L16.075 6.25447V8.04146L15.3606 8.93495ZM6.43001 14.2959H0.714446L0 13.4024V11.6154L0.714446 10.7219H6.43001L7.14446 11.6154V13.4024L6.43001 14.2959ZM13.3959 0H11.6097V3.57398H13.3959V0ZM11.6097 10.7219H13.3959V21.4439H11.6097V10.7219ZM4.46528 16.0829H2.67917V21.4439H4.46528V16.0829ZM18.5756 16.0829H24.2733L24.9877 15.1894V13.4918L24.2733 12.5983H18.5756L17.8611 13.4918V15.1894L18.5756 16.0829ZM22.3264 0H20.5403V10.7219H22.3264V0ZM20.5403 17.8699H22.3264V21.4439H20.5403V17.8699Z" fill="black" fill-opacity="0.6"/>
</svg>
