<svg width="30" height="31" viewBox="0 0 30 31" fill="none" xmlns="http://www.w3.org/2000/svg">
<path d="M25.3125 9.27183H6.5625C6.2517 9.27183 5.95363 9.14793 5.73386 8.92738C5.51409 8.70683 5.39062 8.4077 5.39062 8.0958C5.39062 7.7839 5.51409 7.48477 5.73386 7.26423C5.95363 7.04368 6.2517 6.91978 6.5625 6.91978H22.5C22.6865 6.91978 22.8653 6.84544 22.9972 6.71311C23.129 6.58078 23.2031 6.4013 23.2031 6.21416C23.2031 6.02702 23.129 5.84754 22.9972 5.71521C22.8653 5.58289 22.6865 5.50854 22.5 5.50854H6.5625C5.87874 5.50854 5.22298 5.78113 4.73949 6.26634C4.256 6.75154 3.98438 7.40962 3.98438 8.0958V23.1489C3.98438 23.8351 4.256 24.4932 4.73949 24.9784C5.22298 25.4636 5.87874 25.7362 6.5625 25.7362H25.3125C25.7476 25.7362 26.1649 25.5627 26.4726 25.254C26.7803 24.9452 26.9531 24.5264 26.9531 24.0898V10.9183C26.9531 10.4816 26.7803 10.0628 26.4726 9.75406C26.1649 9.44529 25.7476 9.27183 25.3125 9.27183ZM25.5469 24.0898C25.5469 24.1521 25.5222 24.212 25.4782 24.2561C25.4343 24.3002 25.3747 24.325 25.3125 24.325H6.5625C6.2517 24.325 5.95363 24.2011 5.73386 23.9805C5.51409 23.76 5.39062 23.4608 5.39062 23.1489V10.3996C5.75319 10.5864 6.15496 10.6836 6.5625 10.6831H25.3125C25.3747 10.6831 25.4343 10.7078 25.4782 10.752C25.5222 10.7961 25.5469 10.8559 25.5469 10.9183V24.0898ZM22.2656 17.0336C22.2656 17.2662 22.1969 17.4936 22.0681 17.687C21.9394 17.8804 21.7563 18.0311 21.5422 18.1201C21.3281 18.2091 21.0925 18.2324 20.8651 18.187C20.6378 18.1417 20.429 18.0297 20.2651 17.8652C20.1012 17.7007 19.9896 17.4912 19.9444 17.263C19.8992 17.0349 19.9224 16.7984 20.0111 16.5836C20.0998 16.3687 20.25 16.185 20.4427 16.0558C20.6354 15.9266 20.862 15.8576 21.0938 15.8576C21.4046 15.8576 21.7026 15.9815 21.9224 16.202C22.1422 16.4226 22.2656 16.7217 22.2656 17.0336Z" fill="#666666"/>
</svg>
