<svg xmlns="http://www.w3.org/2000/svg" width="24" height="24" viewBox="0 0 24 24" fill="none">
  <path d="M15.6667 7.11111H15.6789M9.55556 23H4.66667C3.69421 23 2.76158 22.6137 2.07394 21.9261C1.38631 21.2384 1 20.3058 1 19.3333V4.66667C1 3.69421 1.38631 2.76158 2.07394 2.07394C2.76158 1.38631 3.69421 1 4.66667 1H19.3333C20.3058 1 21.2384 1.38631 21.9261 2.07394C22.6137 2.76158 23 3.69421 23 4.66667V10.7778" stroke="#595959" stroke-width="2" stroke-linecap="round" stroke-linejoin="round"/>
  <path d="M1 16.8887L7.11111 10.7776C8.24533 9.68612 9.64356 9.68612 10.7778 10.7776L12 11.9998M14.4444 22.9998V18.1109C14.4444 17.4626 14.702 16.8408 15.1604 16.3824C15.6188 15.924 16.2406 15.6665 16.8889 15.6665C17.5372 15.6665 18.1589 15.924 18.6174 16.3824C19.0758 16.8408 19.3333 17.4626 19.3333 18.1109V22.9998M14.4444 20.5553H19.3333M23 15.6665V22.9998" stroke="#595959" stroke-width="2" stroke-linecap="round" stroke-linejoin="round"/>
</svg>