<svg width="25" height="25" viewBox="0 0 25 25" fill="none" xmlns="http://www.w3.org/2000/svg">
<path d="M2.37383 25C1.6977 25 1.13327 24.7735 0.680548 24.3206C0.22685 23.8667 0 23.3015 0 22.625V3.84559C0 3.16912 0.22685 2.60441 0.680548 2.15147C1.13327 1.69755 1.6977 1.47059 2.37383 1.47059H16.0554V2.94118H2.37383C2.14845 2.94118 1.9412 3.03529 1.75208 3.22353C1.56394 3.41274 1.46987 3.6201 1.46987 3.84559V22.625C1.46987 22.8505 1.56394 23.0578 1.75208 23.2471C1.9412 23.4353 2.14845 23.5294 2.37383 23.5294H21.144C21.3694 23.5294 21.5767 23.4353 21.7658 23.2471C21.9539 23.0578 22.048 22.8505 22.048 22.625V8.93676H23.5179V22.625C23.5179 23.3015 23.2915 23.8662 22.8388 24.3191C22.3851 24.773 21.8202 25 21.144 25H2.37383ZM6.6144 19.8529V18.3824H16.9035V19.8529H6.6144ZM6.6144 15.4412V13.9706H16.9035V15.4412H6.6144ZM6.6144 11.0294V9.55882H16.9035V11.0294H6.6144ZM20.5781 7.35294V4.41176H17.6384V2.94118H20.5781V0H22.048V2.94118H24.9877V4.41176H22.048V7.35294H20.5781Z" fill="black" fill-opacity="0.6"/>
</svg>
