<svg width="25" height="29" viewBox="0 0 25 29" fill="none" xmlns="http://www.w3.org/2000/svg">
<path d="M12.4939 0.746115L12.822 0.0602994C12.7183 0.0205148 12.6067 0 12.4939 0C12.381 0 12.2694 0.0205148 12.1657 0.0602994L12.4939 0.746115ZM12.4939 27.5824L12.0807 28.2294C12.2066 28.2937 12.349 28.3276 12.4939 28.3276C12.6388 28.3276 12.7812 28.2937 12.907 28.2294L12.4939 27.5824ZM12.164 0.0602994L1.51426 4.14537L2.1706 5.517L12.822 1.43193L12.164 0.0602994ZM2.89132e-08 6.20282V16.4274H1.66585V6.20282H2.89132e-08ZM5.45566 24.8421L12.0807 28.2294L12.907 26.9353L6.28192 23.5465L5.45566 24.8421ZM12.907 28.2294L19.5321 24.8421L18.7058 23.5465L12.0807 26.9353L12.907 28.2294ZM24.9877 16.4274V6.20282H23.3219V16.4304L24.9877 16.4274ZM23.4718 4.14686L12.822 0.0602994L12.1657 1.43193L22.8171 5.517L23.4718 4.14686ZM24.9877 6.20282C24.9874 5.76519 24.8436 5.33578 24.5741 4.97059C24.3046 4.6054 23.9214 4.319 23.4718 4.14686L22.8171 5.517C22.9671 5.57452 23.0948 5.67018 23.1845 5.7921C23.2743 5.91402 23.322 6.05683 23.3219 6.20282H24.9877ZM19.5321 24.8421C21.1895 23.9944 22.5671 22.7696 23.5252 21.2919C24.4833 19.8141 24.9879 18.1359 24.9877 16.4274H23.3219C23.3218 17.8729 22.8948 19.2927 22.0842 20.5429C21.2736 21.7931 20.1081 22.8293 18.7058 23.5465L19.5321 24.8421ZM2.89132e-08 16.4274C-0.000139457 18.1359 0.504411 19.8141 1.46251 21.2919C2.42061 22.7696 3.7982 23.9944 5.45566 24.8421L6.28192 23.5465C4.87967 22.8293 3.71418 21.7931 2.90354 20.5429C2.09289 19.2927 1.66591 17.8729 1.66585 16.4274H2.89132e-08ZM1.51592 4.14686C1.06635 4.319 0.683094 4.6054 0.413634 4.97059C0.144175 5.33578 0.000356686 5.76519 2.89132e-08 6.20282H1.66585C1.66585 5.90464 1.86575 5.63628 2.1706 5.517L1.51592 4.14686Z" fill="#666666"/>
<path d="M17.4914 11.1816L10.828 17.1453L7.49634 14.1634" stroke="#666666" stroke-linecap="round" stroke-linejoin="round"/>
</svg>
