<svg width="28" height="29" viewBox="0 0 28 29" fill="none" xmlns="http://www.w3.org/2000/svg">
<path d="M19.25 23.2228C20.2165 23.2228 21 22.4366 21 21.4666C21 20.4967 20.2165 19.7104 19.25 19.7104C18.2835 19.7104 17.5 20.4967 17.5 21.4666C17.5 22.4366 18.2835 23.2228 19.25 23.2228Z" fill="#666666"/>
<path d="M26.0549 21.0093C25.5142 19.627 24.5813 18.4344 23.3717 17.5792C22.1621 16.724 20.729 16.2438 19.25 16.1982C17.771 16.2438 16.3379 16.724 15.1283 17.5792C13.9187 18.4344 12.9858 19.627 12.4451 21.0093L12.25 21.4668L12.4451 21.9251C12.9859 23.3072 13.9189 24.4996 15.1285 25.3547C16.3381 26.2097 17.7711 26.6898 19.25 26.7354C20.7289 26.6898 22.1619 26.2097 23.3715 25.3547C24.5811 24.4996 25.5141 23.3072 26.0549 21.9251L26.25 21.4668L26.0549 21.0093ZM19.25 24.9792C18.5578 24.9792 17.8811 24.7732 17.3055 24.3872C16.7299 24.0013 16.2813 23.4527 16.0164 22.8109C15.7515 22.1691 15.6822 21.4629 15.8173 20.7815C15.9523 20.1002 16.2856 19.4743 16.7751 18.9831C17.2646 18.4919 17.8883 18.1574 18.5672 18.0219C19.2461 17.8863 19.9499 17.9559 20.5894 18.2217C21.2289 18.4876 21.7756 18.9378 22.1601 19.5154C22.5447 20.093 22.75 20.7721 22.75 21.4668C22.7488 22.398 22.3797 23.2907 21.7236 23.9491C21.0675 24.6076 20.1779 24.978 19.25 24.9792ZM6.125 15.3201H10.5V17.0763H6.125V15.3201ZM6.125 10.9296H16.625V12.6858H6.125V10.9296ZM6.125 6.53906H16.625V8.29526H6.125V6.53906Z" fill="#666666"/>
<path d="M19.25 2.14844H3.5C3.0363 2.14983 2.59198 2.3353 2.26409 2.66435C1.9362 2.9934 1.75138 3.43929 1.75 3.90464V24.979C1.75138 25.4444 1.9362 25.8903 2.26409 26.2193C2.59198 26.5484 3.0363 26.7338 3.5 26.7352H10.5V24.979H3.5V3.90464H19.25V13.5637H21V3.90464C20.9986 3.43929 20.8138 2.9934 20.4859 2.66435C20.158 2.3353 19.7137 2.14983 19.25 2.14844Z" fill="#666666"/>
</svg>
