<svg xmlns="http://www.w3.org/2000/svg" width="25" height="22" viewBox="0 0 25 22" fill="none">
<path fill-rule="evenodd" clipRule="evenodd" d="M4.46748 0H2.68049V9.16667H4.46748V0ZM15.3681 9.16667H9.64975L8.93495 8.15833V6.325L9.64975 5.5H15.3681L16.0829 6.41667V8.25L15.3681 9.16667ZM6.43317 14.6667H0.714796L0 13.75V11.9167L0.714796 11H6.43317L7.14796 11.9167V13.75L6.43317 14.6667ZM13.4024 0H11.6154V3.66667H13.4024V0ZM11.6154 11H13.4024V22H11.6154V11ZM4.46748 16.5H2.68049V22H4.46748V16.5ZM18.5847 16.5H24.2852L25 15.5833V13.8417L24.2852 12.925H18.5847L17.8699 13.8417V15.5833L18.5847 16.5ZM22.3374 0H20.5504V11H22.3374V0ZM20.5504 18.3333H22.3374V22H20.5504V18.3333Z" fill="#595959"/>
</svg>