<svg width="15" height="14" viewBox="0 0 15 14" fill="none" xmlns="http://www.w3.org/2000/svg">
<g clipPath="url(#clip0_446_3740)">
<path d="M0.5 3.52284V5.05545H2.68867L0.5 3.52284ZM2.31378 12.0554H5.55556V9.7855L2.31378 12.0554ZM9.44444 9.78589V12.0554H12.6858L9.44444 9.78589ZM0.5 8.94434V10.4769L2.68944 8.94434H0.5ZM12.6866 1.94434H9.44444V4.21428L12.6866 1.94434ZM14.5 10.4773V8.94434H12.3102L14.5 10.4773ZM14.5 5.05545V3.52284L12.3109 5.05545H14.5ZM5.55556 1.94434H2.31378L5.55556 4.21428V1.94434Z" fill="#00247D"/>
<path d="M10.2766 8.94454L14.0535 11.5894C14.238 11.3993 14.3705 11.1651 14.4385 10.9092L11.6327 8.94454H10.2766ZM5.55553 8.94454H4.72292L0.946424 11.589C1.14904 11.7951 1.40881 11.9425 1.70009 12.0109L5.55553 9.31126V8.94454ZM9.44442 5.05565H10.277L14.0535 2.4112C13.8474 2.20209 13.5862 2.05577 13.3003 1.98926L9.44442 4.68892V5.05565ZM4.72292 5.05565L0.946424 2.4112C0.762072 2.60136 0.629407 2.8355 0.561035 3.09137L3.36687 5.05565H4.72292Z" fill="#CF1B2B"/>
<path d="M14.5 8.16656H8.66667V12.0554H9.44444V9.78589L12.6858 12.0554H12.9444C13.151 12.0555 13.3556 12.0143 13.546 11.9342C13.7365 11.8541 13.909 11.7368 14.0536 11.5892L10.2767 8.94434H11.6327L14.4386 10.909C14.4747 10.7779 14.5 10.6422 14.5 10.4999V10.4773L12.3102 8.94434H14.5V8.16656ZM0.5 8.16656V8.94434H2.68944L0.5 10.4769V10.4999C0.5 10.9242 0.670722 11.308 0.946444 11.5888L4.72294 8.94434H5.55556V9.31106L1.70011 12.0103C1.81444 12.0376 1.93267 12.0554 2.05556 12.0554H2.31378L5.55556 9.7855V12.0554H6.33333V8.16656H0.5ZM14.5 3.49989C14.5002 3.09233 14.3398 2.7011 14.0536 2.411L10.2771 5.05545H9.44444V4.68872L13.3003 1.98906C13.1838 1.96049 13.0644 1.94548 12.9444 1.94434H12.6866L9.44444 4.21428V1.94434H8.66667V5.83322H14.5V5.05545H12.3109L14.5 3.52284V3.49989ZM5.55556 1.94434V4.21428L2.31378 1.94434H2.05556C1.84891 1.94425 1.64433 1.98549 1.45386 2.06563C1.26338 2.14577 1.09086 2.2632 0.946444 2.411L4.72294 5.05545H3.36689L0.561056 3.09117C0.52247 3.22406 0.501934 3.36153 0.5 3.49989L0.5 3.52284L2.68867 5.05545H0.5V5.83322H6.33333V1.94434H5.55556Z" fill="#EEEEEE"/>
<path d="M8.66667 5.83322V1.94434H6.33333V5.83322H0.5V8.16656H6.33333V12.0554H8.66667V8.16656H14.5V5.83322H8.66667Z" fill="#CF1B2B"/>
</g>
<defs>
<clipPath id="clip0_446_3740">
<rect width="14" height="14" fill="white" transform="translate(0.5)"/>
</clipPath>
</defs>
</svg>
