<svg width="15" height="14" viewBox="0 0 15 14" fill="none" xmlns="http://www.w3.org/2000/svg">
<g clip-path="url(#clip0_446_3747)">
<path d="M0.5 3.49989V5.05545H14.5V3.49989C14.5 3.08733 14.3361 2.69167 14.0444 2.39995C13.7527 2.10822 13.357 1.94434 12.9444 1.94434H2.05556C1.643 1.94434 1.24733 2.10822 0.955612 2.39995C0.663888 2.69167 0.5 3.08733 0.5 3.49989Z" fill="#0099B5"/>
<path d="M14.5 10.4999V8.94434H0.5V10.4999C0.5 10.9125 0.663888 11.3081 0.955612 11.5998C1.24733 11.8916 1.643 12.0554 2.05556 12.0554H12.9444C13.357 12.0554 13.7527 11.8916 14.0444 11.5998C14.3361 11.3081 14.5 10.9125 14.5 10.4999Z" fill="#1EB53A"/>
<path d="M0.5 5.05566H14.5V5.639H0.5V5.05566ZM0.5 8.36122H14.5V8.94455H0.5V8.36122Z" fill="#CE1126"/>
<path d="M0.5 6.99978V8.36089H14.5V5.63867H0.5V6.99978Z" fill="#EEEEEE"/>
<path d="M2.1333 3.56197C2.13333 3.27525 2.2349 2.99782 2.41998 2.77885C2.60507 2.55988 2.86171 2.41353 3.14441 2.36574C2.97038 2.3362 2.792 2.34499 2.62171 2.39149C2.45143 2.438 2.29334 2.5211 2.15848 2.635C2.02362 2.74889 1.91523 2.89085 1.84089 3.05095C1.76654 3.21105 1.72803 3.38544 1.72803 3.56197C1.72803 3.73849 1.76654 3.91288 1.84089 4.07299C1.91523 4.23309 2.02362 4.37504 2.15848 4.48894C2.29334 4.60283 2.45143 4.68593 2.62171 4.73244C2.792 4.77894 2.97038 4.78773 3.14441 4.75819C2.86171 4.7104 2.60507 4.56405 2.41998 4.34508C2.2349 4.12611 2.13333 3.84868 2.1333 3.56197ZM3.95447 4.45758L3.90002 4.28997L3.84558 4.45758H3.66902L3.81175 4.56141L3.7573 4.72902L3.90002 4.62519L4.04236 4.72902L3.98791 4.56141L4.13064 4.45758H3.95447ZM5.00525 4.45758L4.9508 4.28997L4.89636 4.45758H4.72019L4.86291 4.56141L4.80847 4.72902L4.9508 4.62519L5.09352 4.72902L5.03908 4.56141L5.1818 4.45758H5.00525ZM4.9508 3.3193L4.89636 3.48691H4.72019L4.86291 3.59074L4.80847 3.75836L4.9508 3.65452L5.09352 3.75836L5.03908 3.59074L5.1818 3.48691H5.00525L4.9508 3.3193ZM6.05641 4.45758L6.00197 4.28997L5.94752 4.45758H5.77136L5.91369 4.56141L5.85925 4.72902L6.00197 4.62519L6.14469 4.72902L6.09025 4.56141L6.23258 4.45758H6.05641ZM6.00197 3.3193L5.94752 3.48691H5.77136L5.91369 3.59074L5.85925 3.75836L6.00197 3.65452L6.14469 3.75836L6.09025 3.59074L6.23258 3.48691H6.05641L6.00197 3.3193ZM6.00197 2.34863L5.94752 2.51624H5.77136L5.91369 2.62008L5.85925 2.78769L6.00197 2.68386L6.14469 2.78769L6.09025 2.62008L6.23258 2.51624H6.05641L6.00197 2.34863ZM7.10758 4.45758L7.05314 4.28997L6.99869 4.45758H6.82214L6.96486 4.56141L6.91041 4.72902L7.05314 4.62519L7.19547 4.72902L7.14102 4.56141L7.28375 4.45758H7.10758ZM7.05314 3.3193L6.99869 3.48691H6.82214L6.96486 3.59074L6.91041 3.75836L7.05314 3.65452L7.19547 3.75836L7.14102 3.59074L7.28375 3.48691H7.10758L7.05314 3.3193ZM7.05314 2.34863L6.99869 2.51624H6.82214L6.96486 2.62008L6.91041 2.78769L7.05314 2.68386L7.19547 2.78769L7.14102 2.62008L7.28375 2.51624H7.10758L7.05314 2.34863ZM8.15836 4.45758L8.10391 4.28997L8.04947 4.45758H7.8733L8.01602 4.56141L7.96158 4.72902L8.10391 4.62519L8.24664 4.72902L8.19219 4.56141L8.33491 4.45758H8.15836ZM8.10391 3.3193L8.04947 3.48691H7.8733L8.01602 3.59074L7.96158 3.75836L8.10391 3.65452L8.24664 3.75836L8.19219 3.59074L8.33491 3.48691H8.15836L8.10391 3.3193ZM8.10391 2.34863L8.04947 2.51624H7.8733L8.01602 2.62008L7.96158 2.78769L8.10391 2.68386L8.24664 2.78769L8.19219 2.62008L8.33491 2.51624H8.15836L8.10391 2.34863Z" fill="white"/>
</g>
<defs>
<clipPath id="clip0_446_3747">
<rect width="14" height="14" fill="white" transform="translate(0.5)"/>
</clipPath>
</defs>
</svg>
