<?xml version="1.0" encoding="UTF-8"?>
<svg id="_Слой_1" data-name="Слой 1" xmlns="http://www.w3.org/2000/svg" viewBox="0 0 75.34 12.33">
  <defs>
    <style>
      .cls-1 {
        fill-rule: evenodd;
      }

      .cls-1, .cls-2 {
        fill: #fff;
        stroke-width: 0px;
      }
    </style>
  </defs>
  <path class="cls-1" d="M19.2,1.2c0-.63-.48-1.15-1.07-1.15h-1.07c-.59,0-1.07.51-1.07,1.15v9.93c0,.63.48,1.15,1.07,1.15h1.07c.59,0,1.07-.51,1.07-1.15V1.2ZM11.77,2.5h1.07c.59,0,1.07.53,1.07,1.17v7.43c0,.65-.48,1.17-1.07,1.17h-1.07c-.59,0-1.07-.53-1.07-1.17V3.67c0-.65.48-1.17,1.07-1.17ZM7.43,5.15h-1.07c-.59,0-1.07.53-1.07,1.19v4.75c0,.66.48,1.19,1.07,1.19h1.07c.59,0,1.07-.53,1.07-1.19v-4.75c0-.66-.48-1.19-1.07-1.19ZM2.13,7.59h-1.07c-.59,0-1.07.52-1.07,1.17v2.34c0,.65.48,1.17,1.07,1.17h1.07c.59,0,1.07-.52,1.07-1.17v-2.34c0-.65-.48-1.17-1.07-1.17Z"/>
  <path class="cls-1" d="M35.77,2.47c2.49,0,4.88.92,6.68,2.58.14.13.35.13.49,0l1.3-1.26c.07-.07.11-.15.11-.25,0-.09-.04-.18-.11-.25-4.73-4.37-12.2-4.37-16.93,0-.07.06-.11.15-.11.25,0,.09.04.18.11.25l1.3,1.26c.13.13.35.13.49,0,1.8-1.65,4.2-2.58,6.68-2.58ZM35.77,6.69c1.36,0,2.67.51,3.67,1.44.14.13.35.13.48,0l1.29-1.32c.07-.07.11-.16.1-.26,0-.1-.04-.19-.11-.26-3.06-2.89-7.81-2.89-10.87,0-.07.07-.11.16-.11.26,0,.1.04.19.11.26l1.29,1.32c.13.13.35.14.48,0,1.01-.92,2.31-1.44,3.67-1.44ZM38.29,9.48c0,.11-.03.21-.1.28l-2.18,2.45c-.06.07-.15.11-.24.11s-.18-.04-.24-.11l-2.18-2.45c-.07-.07-.1-.18-.1-.28,0-.11.04-.21.11-.28,1.39-1.31,3.43-1.31,4.82,0,.07.07.11.17.11.28Z"/>
  <rect class="cls-2" x="54.34" y="1.66" width="21" height="9" rx="2.5" ry="2.5"/>
</svg>