<svg width="50" height="50" viewBox="0 0 50 50" fill="none" xmlns="http://www.w3.org/2000/svg">
<path d="M34.7656 7.03125C30.5781 7.03125 26.9688 9.02148 25 12.3184C23.0312 9.02148 19.4219 7.03125 15.2344 7.03125C12.2311 7.03487 9.35183 8.22953 7.22818 10.3532C5.10453 12.4768 3.90987 15.3561 3.90625 18.3594C3.90625 23.9434 7.42188 29.7793 14.3359 35.7012C17.5283 38.4178 20.9753 40.8202 24.6289 42.875C24.7429 42.9365 24.8704 42.9688 25 42.9688C25.1296 42.9688 25.2571 42.9365 25.3711 42.875C29.0247 40.8202 32.4717 38.4178 35.6641 35.7012C42.5781 29.7793 46.0938 23.9434 46.0938 18.3594C46.0901 15.3561 44.8955 12.4768 42.7718 10.3532C40.6482 8.22953 37.7689 7.03487 34.7656 7.03125ZM25 41.293C22.2656 39.7383 5.46875 29.7012 5.46875 18.3594C5.47185 15.7703 6.50172 13.2882 8.33246 11.4575C10.1632 9.62672 12.6453 8.59685 15.2344 8.59375C19.3574 8.59375 22.8223 10.8027 24.2773 14.3574C24.3362 14.5007 24.4363 14.6233 24.565 14.7095C24.6937 14.7958 24.8451 14.8418 25 14.8418C25.1549 14.8418 25.3063 14.7958 25.435 14.7095C25.5637 14.6233 25.6638 14.5007 25.7227 14.3574C27.1777 10.8027 30.6426 8.59375 34.7656 8.59375C37.3547 8.59685 39.8368 9.62672 41.6675 11.4575C43.4983 13.2882 44.5281 15.7703 44.5312 18.3594C44.5312 29.6875 27.7344 39.7383 25 41.293Z" fill="url(#paint0_linear_173_551)"/>
<path d="M34.7656 7.03125C30.5781 7.03125 26.9688 9.02148 25 12.3184C23.0312 9.02148 19.4219 7.03125 15.2344 7.03125C12.2311 7.03487 9.35183 8.22953 7.22818 10.3532C5.10453 12.4768 3.90987 15.3561 3.90625 18.3594C3.90625 23.9434 7.42188 29.7793 14.3359 35.7012C17.5283 38.4178 20.9753 40.8202 24.6289 42.875C24.7429 42.9365 24.8704 42.9688 25 42.9688C25.1296 42.9688 25.2571 42.9365 25.3711 42.875C29.0247 40.8202 32.4717 38.4178 35.6641 35.7012C42.5781 29.7793 46.0938 23.9434 46.0938 18.3594C46.0901 15.3561 44.8955 12.4768 42.7718 10.3532C40.6482 8.22953 37.7689 7.03487 34.7656 7.03125ZM25 41.293C22.2656 39.7383 5.46875 29.7012 5.46875 18.3594C5.47185 15.7703 6.50172 13.2882 8.33246 11.4575C10.1632 9.62672 12.6453 8.59685 15.2344 8.59375C19.3574 8.59375 22.8223 10.8027 24.2773 14.3574C24.3362 14.5007 24.4363 14.6233 24.565 14.7095C24.6937 14.7958 24.8451 14.8418 25 14.8418C25.1549 14.8418 25.3063 14.7958 25.435 14.7095C25.5637 14.6233 25.6638 14.5007 25.7227 14.3574C27.1777 10.8027 30.6426 8.59375 34.7656 8.59375C37.3547 8.59685 39.8368 9.62672 41.6675 11.4575C43.4983 13.2882 44.5281 15.7703 44.5312 18.3594C44.5312 29.6875 27.7344 39.7383 25 41.293Z" fill="url(#paint1_radial_173_551)" fillOpacity="0.2"/>
<defs>
<linearGradient id="paint0_linear_173_551" x1="3.90625" y1="24.9502" x2="46.0938" y2="24.9502" gradientUnits="userSpaceOnUse">
<stop stopColor="#FF2F66"/>
<stop offset="1" stopColor="#FE6E30" stop-opacity="0.99"/>
</linearGradient>
<radialGradient id="paint1_radial_173_551" cx="0" cy="0" r="1" gradientUnits="userSpaceOnUse" gradientTransform="translate(3.90625 42.9688) rotate(-38.3679) scale(53.8078 139.554)">
<stop stopColor="white"/>
<stop offset="1" stopColor="#7D7575" stop-opacity="0"/>
</radialGradient>
</defs>
</svg>
