<svg width="50" height="50" viewBox="0 0 50 50" fill="none" xmlns="http://www.w3.org/2000/svg">
<path d="M4.16675 41.6667V39.5833C4.16675 35.7156 5.7032 32.0063 8.43811 29.2714C11.173 26.5365 14.8823 25 18.7501 25" stroke="url(#paint0_linear_173_530)" strokeWidth="1.5" strokeLinecap="round" strokeLinejoin="round"/>
<path d="M4.16675 41.6667V39.5833C4.16675 35.7156 5.7032 32.0063 8.43811 29.2714C11.173 26.5365 14.8823 25 18.7501 25" stroke="url(#paint1_radial_173_530)" stroke-opacity="0.2" strokeWidth="1.5" strokeLinecap="round" strokeLinejoin="round"/>
<path d="M32.925 25.6543C33.2409 25.3076 33.6257 25.0306 34.0547 24.8411C34.4838 24.6516 34.9476 24.5537 35.4167 24.5537C35.8857 24.5537 36.3496 24.6516 36.7786 24.8411C37.2077 25.0306 37.5924 25.3076 37.9083 25.6543C38.5854 26.3959 39.5542 26.798 40.5583 26.7501C41.0271 26.7281 41.4952 26.8043 41.9329 26.9736C42.3705 27.143 42.7679 27.4019 43.0997 27.7337C43.4315 28.0655 43.6904 28.463 43.8598 28.9006C44.0292 29.3382 44.1053 29.8064 44.0833 30.2751C44.0354 31.2772 44.4375 32.248 45.1792 32.9251C46.6479 34.2626 46.6479 36.5709 45.1792 37.9084C44.4375 38.5855 44.0354 39.5543 44.0833 40.5584C44.1053 41.0272 44.0292 41.4953 43.8598 41.933C43.6904 42.3706 43.4315 42.768 43.0997 43.0998C42.7679 43.4317 42.3705 43.6905 41.9329 43.8599C41.4952 44.0293 41.0271 44.1054 40.5583 44.0834C40.0632 44.06 39.569 44.1461 39.111 44.3355C38.6529 44.5249 38.2423 44.813 37.9083 45.1793C37.5924 45.526 37.2077 45.8029 36.7786 45.9924C36.3496 46.182 35.8857 46.2798 35.4167 46.2798C34.9476 46.2798 34.4838 46.182 34.0547 45.9924C33.6257 45.8029 33.2409 45.526 32.925 45.1793C32.591 44.813 32.1804 44.5249 31.7223 44.3355C31.2643 44.1461 30.7701 44.06 30.275 44.0834C29.8063 44.1054 29.3381 44.0293 28.9005 43.8599C28.4628 43.6905 28.0654 43.4317 27.7336 43.0998C27.4018 42.768 27.1429 42.3706 26.9735 41.933C26.8042 41.4953 26.728 41.0272 26.75 40.5584C26.7731 40.0632 26.6868 39.5689 26.497 39.1108C26.3072 38.6528 26.0187 38.2422 25.6521 37.9084C25.3054 37.5925 25.0284 37.2078 24.8389 36.7787C24.6494 36.3497 24.5515 35.8858 24.5515 35.4168C24.5515 34.9477 24.6494 34.4839 24.8389 34.0548C25.0284 33.6258 25.3054 33.241 25.6521 32.9251C26.3958 32.248 26.7979 31.2793 26.75 30.2751C26.728 29.8064 26.8042 29.3382 26.9735 28.9006C27.1429 28.463 27.4018 28.0655 27.7336 27.7337C28.0654 27.4019 28.4628 27.143 28.9005 26.9736C29.3381 26.8043 29.8063 26.7281 30.275 26.7501C31.2771 26.798 32.2479 26.3959 32.925 25.6522V25.6543Z" stroke="url(#paint2_linear_173_530)" strokeWidth="1.5"/>
<path d="M32.925 25.6543C33.2409 25.3076 33.6257 25.0306 34.0547 24.8411C34.4838 24.6516 34.9476 24.5537 35.4167 24.5537C35.8857 24.5537 36.3496 24.6516 36.7786 24.8411C37.2077 25.0306 37.5924 25.3076 37.9083 25.6543C38.5854 26.3959 39.5542 26.798 40.5583 26.7501C41.0271 26.7281 41.4952 26.8043 41.9329 26.9736C42.3705 27.143 42.7679 27.4019 43.0997 27.7337C43.4315 28.0655 43.6904 28.463 43.8598 28.9006C44.0292 29.3382 44.1053 29.8064 44.0833 30.2751C44.0354 31.2772 44.4375 32.248 45.1792 32.9251C46.6479 34.2626 46.6479 36.5709 45.1792 37.9084C44.4375 38.5855 44.0354 39.5543 44.0833 40.5584C44.1053 41.0272 44.0292 41.4953 43.8598 41.933C43.6904 42.3706 43.4315 42.768 43.0997 43.0998C42.7679 43.4317 42.3705 43.6905 41.9329 43.8599C41.4952 44.0293 41.0271 44.1054 40.5583 44.0834C40.0632 44.06 39.569 44.1461 39.111 44.3355C38.6529 44.5249 38.2423 44.813 37.9083 45.1793C37.5924 45.526 37.2077 45.8029 36.7786 45.9924C36.3496 46.182 35.8857 46.2798 35.4167 46.2798C34.9476 46.2798 34.4838 46.182 34.0547 45.9924C33.6257 45.8029 33.2409 45.526 32.925 45.1793C32.591 44.813 32.1804 44.5249 31.7223 44.3355C31.2643 44.1461 30.7701 44.06 30.275 44.0834C29.8063 44.1054 29.3381 44.0293 28.9005 43.8599C28.4628 43.6905 28.0654 43.4317 27.7336 43.0998C27.4018 42.768 27.1429 42.3706 26.9735 41.933C26.8042 41.4953 26.728 41.0272 26.75 40.5584C26.7731 40.0632 26.6868 39.5689 26.497 39.1108C26.3072 38.6528 26.0187 38.2422 25.6521 37.9084C25.3054 37.5925 25.0284 37.2078 24.8389 36.7787C24.6494 36.3497 24.5515 35.8858 24.5515 35.4168C24.5515 34.9477 24.6494 34.4839 24.8389 34.0548C25.0284 33.6258 25.3054 33.241 25.6521 32.9251C26.3958 32.248 26.7979 31.2793 26.75 30.2751C26.728 29.8064 26.8042 29.3382 26.9735 28.9006C27.1429 28.463 27.4018 28.0655 27.7336 27.7337C28.0654 27.4019 28.4628 27.143 28.9005 26.9736C29.3381 26.8043 29.8063 26.7281 30.275 26.7501C31.2771 26.798 32.2479 26.3959 32.925 25.6522V25.6543Z" stroke="url(#paint3_radial_173_530)" stroke-opacity="0.2" strokeWidth="1.5"/>
<path d="M32.0084 35.4163L34.2793 37.6872L38.8251 33.1455M18.7501 24.9997C20.9602 24.9997 23.0798 24.1217 24.6426 22.5589C26.2054 20.9961 27.0834 18.8765 27.0834 16.6663C27.0834 14.4562 26.2054 12.3366 24.6426 10.7738C23.0798 9.21098 20.9602 8.33301 18.7501 8.33301C16.5399 8.33301 14.4203 9.21098 12.8575 10.7738C11.2947 12.3366 10.4167 14.4562 10.4167 16.6663C10.4167 18.8765 11.2947 20.9961 12.8575 22.5589C14.4203 24.1217 16.5399 24.9997 18.7501 24.9997Z" stroke="url(#paint4_linear_173_530)" strokeWidth="1.5" strokeLinecap="round" strokeLinejoin="round"/>
<path d="M32.0084 35.4163L34.2793 37.6872L38.8251 33.1455M18.7501 24.9997C20.9602 24.9997 23.0798 24.1217 24.6426 22.5589C26.2054 20.9961 27.0834 18.8765 27.0834 16.6663C27.0834 14.4562 26.2054 12.3366 24.6426 10.7738C23.0798 9.21098 20.9602 8.33301 18.7501 8.33301C16.5399 8.33301 14.4203 9.21098 12.8575 10.7738C11.2947 12.3366 10.4167 14.4562 10.4167 16.6663C10.4167 18.8765 11.2947 20.9961 12.8575 22.5589C14.4203 24.1217 16.5399 24.9997 18.7501 24.9997Z" stroke="url(#paint5_radial_173_530)" stroke-opacity="0.2" strokeWidth="1.5" strokeLinecap="round" strokeLinejoin="round"/>
<defs>
<linearGradient id="paint0_linear_173_530" x1="4.16675" y1="33.3102" x2="18.7501" y2="33.3102" gradientUnits="userSpaceOnUse">
<stop stopColor="#FF2F66"/>
<stop offset="1" stopColor="#FE6E30" stop-opacity="0.99"/>
</linearGradient>
<radialGradient id="paint1_radial_173_530" cx="0" cy="0" r="1" gradientUnits="userSpaceOnUse" gradientTransform="translate(4.16675 41.6667) rotate(-46.7257) scale(21.2743 56.5856)">
<stop stopColor="white"/>
<stop offset="1" stopColor="#7D7575" stop-opacity="0"/>
</radialGradient>
<linearGradient id="paint2_linear_173_530" x1="24.5515" y1="35.3867" x2="46.2807" y2="35.3867" gradientUnits="userSpaceOnUse">
<stop stopColor="#FF2F66"/>
<stop offset="1" stopColor="#FE6E30" stop-opacity="0.99"/>
</linearGradient>
<radialGradient id="paint3_radial_173_530" cx="0" cy="0" r="1" gradientUnits="userSpaceOnUse" gradientTransform="translate(24.5515 46.2798) rotate(-42.8992) scale(29.6623 78.8272)">
<stop stopColor="white"/>
<stop offset="1" stopColor="#7D7575" stop-opacity="0"/>
</radialGradient>
<linearGradient id="paint4_linear_173_530" x1="10.4167" y1="22.9694" x2="38.8251" y2="22.9694" gradientUnits="userSpaceOnUse">
<stop stopColor="#FF2F66"/>
<stop offset="1" stopColor="#FE6E30" stop-opacity="0.99"/>
</linearGradient>
<radialGradient id="paint5_radial_173_530" cx="0" cy="0" r="1" gradientUnits="userSpaceOnUse" gradientTransform="translate(10.4167 37.6872) rotate(-43.84) scale(39.3861 104.864)">
<stop stopColor="white"/>
<stop offset="1" stopColor="#7D7575" stop-opacity="0"/>
</radialGradient>
</defs>
</svg>
