<svg xmlns="http://www.w3.org/2000/svg" width="50" height="50" viewBox="0 0 50 50" fill="none">
  <path d="M19.5079 36.1326C19.4395 36.4119 17.6856 42.9686 7.81258 42.9686C7.60538 42.9686 7.40667 42.8863 7.26016 42.7398C7.11364 42.5932 7.03133 42.3945 7.03133 42.1873C7.03133 32.3162 13.5938 30.5604 13.8673 30.492C14.0683 30.4402 14.2816 30.4704 14.4603 30.5759C14.6391 30.6814 14.7686 30.8535 14.8204 31.0545C14.8722 31.2555 14.842 31.4688 14.7365 31.6476C14.6311 31.8263 14.4589 31.9558 14.2579 32.0076C14.0391 32.0643 8.93954 33.4901 8.61532 41.3826C16.5157 41.0584 17.9415 35.9608 18.0001 35.7362C18.0519 35.5354 18.1813 35.3635 18.3599 35.2582C18.5384 35.1529 18.7515 35.1228 18.9522 35.1746C19.153 35.2264 19.3249 35.3558 19.4302 35.5344C19.5355 35.713 19.5656 35.9261 19.5138 36.1268L19.5079 36.1326ZM37.8907 22.5994L36.7188 23.7596V35.4783C36.7196 35.7862 36.6593 36.0911 36.5413 36.3754C36.4232 36.6598 36.2499 36.9178 36.0313 37.1346L29.3243 43.8436C29.0165 44.1517 28.629 44.3679 28.2052 44.4681C27.7814 44.5682 27.3381 44.5483 26.925 44.4106C26.5119 44.2729 26.1453 44.0228 25.8663 43.6884C25.5874 43.354 25.4071 42.9485 25.3458 42.5174L24.2618 34.742L15.2579 25.7362L7.48641 24.6522C7.05496 24.5914 6.64899 24.4116 6.31407 24.1329C5.97916 23.8542 5.72856 23.4877 5.59041 23.0744C5.45226 22.6612 5.43204 22.2177 5.532 21.7936C5.63197 21.3695 5.84817 20.9817 6.15633 20.6737L12.8653 13.9666C13.0823 13.7484 13.3404 13.5754 13.6247 13.4578C13.909 13.3401 14.2139 13.28 14.5216 13.2811H26.2403L27.4005 12.1209C32.3868 7.13459 38.3966 6.9217 40.7501 7.06037C41.3195 7.09632 41.8562 7.33875 42.2597 7.74218C42.6631 8.14562 42.9055 8.68237 42.9415 9.25178C43.0802 11.6033 42.8673 17.6131 37.8907 22.5994ZM7.70321 23.1053L15.3477 24.1717L24.6778 14.8436H14.5216C14.3147 14.8444 14.1166 14.9273 13.9708 15.074L7.2618 21.7791C7.15912 21.8817 7.08703 22.0108 7.05361 22.152C7.02019 22.2932 7.02676 22.441 7.07259 22.5786C7.11842 22.7163 7.20169 22.8385 7.31308 22.9316C7.42446 23.0246 7.55955 23.0847 7.70321 23.1053ZM35.1563 25.3221L25.8263 34.6522L26.8927 42.2987C26.9135 42.4422 26.9739 42.577 27.067 42.6881C27.1602 42.7993 27.2824 42.8823 27.42 42.9279C27.5577 42.9735 27.7053 42.9799 27.8464 42.9464C27.9875 42.9129 28.1164 42.8408 28.2188 42.7381L34.9278 36.0311C35.0003 35.9585 35.0579 35.8723 35.0971 35.7774C35.1363 35.6826 35.1564 35.581 35.1563 35.4783V25.3221ZM36.7735 21.4959C41.3106 16.9569 41.5059 11.4842 41.379 9.34358C41.3687 9.15474 41.289 8.97637 41.1553 8.84264C41.0216 8.70892 40.8432 8.62927 40.6544 8.61897C38.5059 8.49201 33.0372 8.68537 28.502 13.2244L27.1134 14.6131L16.7306 24.9998L25.0001 33.2694L35.3868 22.8846L36.7735 21.4959Z" fill="url(#paint0_linear_173_541)"/>
  <path d="M19.5079 36.1326C19.4395 36.4119 17.6856 42.9686 7.81258 42.9686C7.60538 42.9686 7.40667 42.8863 7.26016 42.7398C7.11364 42.5932 7.03133 42.3945 7.03133 42.1873C7.03133 32.3162 13.5938 30.5604 13.8673 30.492C14.0683 30.4402 14.2816 30.4704 14.4603 30.5759C14.6391 30.6814 14.7686 30.8535 14.8204 31.0545C14.8722 31.2555 14.842 31.4688 14.7365 31.6476C14.6311 31.8263 14.4589 31.9558 14.2579 32.0076C14.0391 32.0643 8.93954 33.4901 8.61532 41.3826C16.5157 41.0584 17.9415 35.9608 18.0001 35.7362C18.0519 35.5354 18.1813 35.3635 18.3599 35.2582C18.5384 35.1529 18.7515 35.1228 18.9522 35.1746C19.153 35.2264 19.3249 35.3558 19.4302 35.5344C19.5355 35.713 19.5656 35.9261 19.5138 36.1268L19.5079 36.1326ZM37.8907 22.5994L36.7188 23.7596V35.4783C36.7196 35.7862 36.6593 36.0911 36.5413 36.3754C36.4232 36.6598 36.2499 36.9178 36.0313 37.1346L29.3243 43.8436C29.0165 44.1517 28.629 44.3679 28.2052 44.4681C27.7814 44.5682 27.3381 44.5483 26.925 44.4106C26.5119 44.2729 26.1453 44.0228 25.8663 43.6884C25.5874 43.354 25.4071 42.9485 25.3458 42.5174L24.2618 34.742L15.2579 25.7362L7.48641 24.6522C7.05496 24.5914 6.64899 24.4116 6.31407 24.1329C5.97916 23.8542 5.72856 23.4877 5.59041 23.0744C5.45226 22.6612 5.43204 22.2177 5.532 21.7936C5.63197 21.3695 5.84817 20.9817 6.15633 20.6737L12.8653 13.9666C13.0823 13.7484 13.3404 13.5754 13.6247 13.4578C13.909 13.3401 14.2139 13.28 14.5216 13.2811H26.2403L27.4005 12.1209C32.3868 7.13459 38.3966 6.9217 40.7501 7.06037C41.3195 7.09632 41.8562 7.33875 42.2597 7.74218C42.6631 8.14562 42.9055 8.68237 42.9415 9.25178C43.0802 11.6033 42.8673 17.6131 37.8907 22.5994ZM7.70321 23.1053L15.3477 24.1717L24.6778 14.8436H14.5216C14.3147 14.8444 14.1166 14.9273 13.9708 15.074L7.2618 21.7791C7.15912 21.8817 7.08703 22.0108 7.05361 22.152C7.02019 22.2932 7.02676 22.441 7.07259 22.5786C7.11842 22.7163 7.20169 22.8385 7.31308 22.9316C7.42446 23.0246 7.55955 23.0847 7.70321 23.1053ZM35.1563 25.3221L25.8263 34.6522L26.8927 42.2987C26.9135 42.4422 26.9739 42.577 27.067 42.6881C27.1602 42.7993 27.2824 42.8823 27.42 42.9279C27.5577 42.9735 27.7053 42.9799 27.8464 42.9464C27.9875 42.9129 28.1164 42.8408 28.2188 42.7381L34.9278 36.0311C35.0003 35.9585 35.0579 35.8723 35.0971 35.7774C35.1363 35.6826 35.1564 35.581 35.1563 35.4783V25.3221ZM36.7735 21.4959C41.3106 16.9569 41.5059 11.4842 41.379 9.34358C41.3687 9.15474 41.289 8.97637 41.1553 8.84264C41.0216 8.70892 40.8432 8.62927 40.6544 8.61897C38.5059 8.49201 33.0372 8.68537 28.502 13.2244L27.1134 14.6131L16.7306 24.9998L25.0001 33.2694L35.3868 22.8846L36.7735 21.4959Z" fill="url(#paint1_radial_173_541)" fill-opacity="0.2"/>
  <defs>
    <linearGradient id="paint0_linear_173_541" x1="5.46948" y1="25.7301" x2="42.9687" y2="25.7301" gradientUnits="userSpaceOnUse">
      <stop stopColor="#FF2F66"/>
      <stop offset="1" stopColor="#FE6E30" stop-opacity="0.99"/>
    </linearGradient>
    <radialGradient id="paint1_radial_173_541" cx="0" cy="0" r="1" gradientUnits="userSpaceOnUse" gradientTransform="translate(5.46948 44.5309) rotate(-42.9021) scale(51.1922 136.044)">
      <stop stopColor="white"/>
      <stop offset="1" stopColor="#7D7575" stop-opacity="0"/>
    </radialGradient>
  </defs>
</svg>