<svg xmlns="http://www.w3.org/2000/svg" width="50" height="50" viewBox="0 0 50 50" fill="none">
  <path d="M19.5078 36.1326C19.4394 36.4119 17.6855 42.9686 7.81246 42.9686C7.60526 42.9686 7.40655 42.8863 7.26003 42.7398C7.11352 42.5932 7.03121 42.3945 7.03121 42.1873C7.03121 32.3162 13.5937 30.5604 13.8671 30.492C14.0681 30.4402 14.2815 30.4704 14.4602 30.5759C14.639 30.6814 14.7685 30.8535 14.8203 31.0545C14.8721 31.2555 14.8419 31.4688 14.7364 31.6476C14.6309 31.8263 14.4588 31.9558 14.2578 32.0076C14.039 32.0643 8.93941 33.4901 8.6152 41.3826C16.5156 41.0584 17.9414 35.9608 18 35.7362C18.0518 35.5354 18.1812 35.3635 18.3597 35.2582C18.5383 35.1529 18.7514 35.1228 18.9521 35.1746C19.1528 35.2264 19.3248 35.3558 19.4301 35.5344C19.5354 35.713 19.5654 35.9261 19.5136 36.1268L19.5078 36.1326ZM37.8906 22.5994L36.7187 23.7596V35.4783C36.7195 35.7862 36.6591 36.0911 36.5411 36.3754C36.4231 36.6598 36.2498 36.9178 36.0312 37.1346L29.3242 43.8436C29.0164 44.1517 28.6289 44.3679 28.2051 44.4681C27.7813 44.5682 27.338 44.5483 26.9249 44.4106C26.5117 44.2729 26.1452 44.0228 25.8662 43.6884C25.5873 43.354 25.407 42.9485 25.3457 42.5174L24.2617 34.742L15.2578 25.7362L7.48629 24.6522C7.05484 24.5914 6.64887 24.4116 6.31395 24.1329C5.97904 23.8542 5.72844 23.4877 5.59029 23.0744C5.45214 22.6612 5.43192 22.2177 5.53188 21.7936C5.63185 21.3695 5.84805 20.9817 6.15621 20.6737L12.8652 13.9666C13.0821 13.7484 13.3403 13.5754 13.6246 13.4578C13.9089 13.3401 14.2137 13.28 14.5214 13.2811H26.2402L27.4004 12.1209C32.3867 7.13459 38.3964 6.9217 40.75 7.06037C41.3194 7.09632 41.8561 7.33875 42.2596 7.74218C42.663 8.14562 42.9054 8.68237 42.9414 9.25178C43.08 11.6033 42.8671 17.6131 37.8906 22.5994ZM7.70309 23.1053L15.3476 24.1717L24.6777 14.8436H14.5214C14.3146 14.8444 14.1165 14.9273 13.9707 15.074L7.26168 21.7791C7.159 21.8817 7.08691 22.0108 7.05349 22.152C7.02007 22.2932 7.02664 22.441 7.07247 22.5786C7.1183 22.7163 7.20157 22.8385 7.31296 22.9316C7.42434 23.0246 7.55943 23.0847 7.70309 23.1053ZM35.1562 25.3221L25.8261 34.6522L26.8925 42.2987C26.9134 42.4422 26.9738 42.577 27.0669 42.6881C27.1601 42.7993 27.2823 42.8823 27.4199 42.9279C27.5576 42.9735 27.7052 42.9799 27.8463 42.9464C27.9873 42.9129 28.1163 42.8408 28.2187 42.7381L34.9277 36.0311C35.0002 35.9585 35.0577 35.8723 35.0969 35.7774C35.1362 35.6826 35.1563 35.581 35.1562 35.4783V25.3221ZM36.7734 21.4959C41.3105 16.9569 41.5058 11.4842 41.3789 9.34358C41.3686 9.15474 41.2889 8.97637 41.1552 8.84264C41.0215 8.70892 40.8431 8.62927 40.6543 8.61897C38.5058 8.49201 33.0371 8.68537 28.5019 13.2244L27.1132 14.6131L16.7304 24.9998L25 33.2694L35.3867 22.8846L36.7734 21.4959Z" fill="url(#paint0_linear_173_541)"/>
  <path d="M19.5078 36.1326C19.4394 36.4119 17.6855 42.9686 7.81246 42.9686C7.60526 42.9686 7.40655 42.8863 7.26003 42.7398C7.11352 42.5932 7.03121 42.3945 7.03121 42.1873C7.03121 32.3162 13.5937 30.5604 13.8671 30.492C14.0681 30.4402 14.2815 30.4704 14.4602 30.5759C14.639 30.6814 14.7685 30.8535 14.8203 31.0545C14.8721 31.2555 14.8419 31.4688 14.7364 31.6476C14.6309 31.8263 14.4588 31.9558 14.2578 32.0076C14.039 32.0643 8.93941 33.4901 8.6152 41.3826C16.5156 41.0584 17.9414 35.9608 18 35.7362C18.0518 35.5354 18.1812 35.3635 18.3597 35.2582C18.5383 35.1529 18.7514 35.1228 18.9521 35.1746C19.1528 35.2264 19.3248 35.3558 19.4301 35.5344C19.5354 35.713 19.5654 35.9261 19.5136 36.1268L19.5078 36.1326ZM37.8906 22.5994L36.7187 23.7596V35.4783C36.7195 35.7862 36.6591 36.0911 36.5411 36.3754C36.4231 36.6598 36.2498 36.9178 36.0312 37.1346L29.3242 43.8436C29.0164 44.1517 28.6289 44.3679 28.2051 44.4681C27.7813 44.5682 27.338 44.5483 26.9249 44.4106C26.5117 44.2729 26.1452 44.0228 25.8662 43.6884C25.5873 43.354 25.407 42.9485 25.3457 42.5174L24.2617 34.742L15.2578 25.7362L7.48629 24.6522C7.05484 24.5914 6.64887 24.4116 6.31395 24.1329C5.97904 23.8542 5.72844 23.4877 5.59029 23.0744C5.45214 22.6612 5.43192 22.2177 5.53188 21.7936C5.63185 21.3695 5.84805 20.9817 6.15621 20.6737L12.8652 13.9666C13.0821 13.7484 13.3403 13.5754 13.6246 13.4578C13.9089 13.3401 14.2137 13.28 14.5214 13.2811H26.2402L27.4004 12.1209C32.3867 7.13459 38.3964 6.9217 40.75 7.06037C41.3194 7.09632 41.8561 7.33875 42.2596 7.74218C42.663 8.14562 42.9054 8.68237 42.9414 9.25178C43.08 11.6033 42.8671 17.6131 37.8906 22.5994ZM7.70309 23.1053L15.3476 24.1717L24.6777 14.8436H14.5214C14.3146 14.8444 14.1165 14.9273 13.9707 15.074L7.26168 21.7791C7.159 21.8817 7.08691 22.0108 7.05349 22.152C7.02007 22.2932 7.02664 22.441 7.07247 22.5786C7.1183 22.7163 7.20157 22.8385 7.31296 22.9316C7.42434 23.0246 7.55943 23.0847 7.70309 23.1053ZM35.1562 25.3221L25.8261 34.6522L26.8925 42.2987C26.9134 42.4422 26.9738 42.577 27.0669 42.6881C27.1601 42.7993 27.2823 42.8823 27.4199 42.9279C27.5576 42.9735 27.7052 42.9799 27.8463 42.9464C27.9873 42.9129 28.1163 42.8408 28.2187 42.7381L34.9277 36.0311C35.0002 35.9585 35.0577 35.8723 35.0969 35.7774C35.1362 35.6826 35.1563 35.581 35.1562 35.4783V25.3221ZM36.7734 21.4959C41.3105 16.9569 41.5058 11.4842 41.3789 9.34358C41.3686 9.15474 41.2889 8.97637 41.1552 8.84264C41.0215 8.70892 40.8431 8.62927 40.6543 8.61897C38.5058 8.49201 33.0371 8.68537 28.5019 13.2244L27.1132 14.6131L16.7304 24.9998L25 33.2694L35.3867 22.8846L36.7734 21.4959Z" fill="url(#paint1_radial_173_541)" fill-opacity="0.2"/>
  <defs>
    <linearGradient id="paint0_linear_173_541" x1="5.46936" y1="25.7301" x2="42.9686" y2="25.7301" gradientUnits="userSpaceOnUse">
      <stop stop-color="#FF2F66"/>
      <stop offset="1" stop-color="#FE6E30" stop-opacity="0.99"/>
    </linearGradient>
    <radialGradient id="paint1_radial_173_541" cx="0" cy="0" r="1" gradientUnits="userSpaceOnUse" gradientTransform="translate(5.46936 44.5309) rotate(-42.9021) scale(51.1922 136.044)">
      <stop stop-color="white"/>
      <stop offset="1" stop-color="#7D7575" stop-opacity="0"/>
    </radialGradient>
  </defs>
</svg>