<?xml version="1.0" encoding="UTF-8"?>
<svg id="_Слой_1" data-name="Слой 1" xmlns="http://www.w3.org/2000/svg" xmlns:xlink="http://www.w3.org/1999/xlink" viewBox="0 0 439 550.3">
  <defs>
    <style>
      .cls-1 {
        mask: url(#mask);
      }

      .cls-2 {
        fill: url(#_Безымянный_градиент_9);
        stroke: url(#_Безымянный_градиент_10);
      }

      .cls-2, .cls-3, .cls-4, .cls-5, .cls-6, .cls-7, .cls-8 {
        fill-opacity: .35;
      }

      .cls-3 {
        fill: url(#_Безымянный_градиент_13);
        stroke: url(#_Безымянный_градиент_14);
      }

      .cls-4 {
        fill: url(#_Безымянный_градиент_11);
        stroke: url(#_Безымянный_градиент_12);
      }

      .cls-5 {
        fill: url(#_Безымянный_градиент_5);
        stroke: url(#_Безымянный_градиент_6);
      }

      .cls-6 {
        fill: url(#_Безымянный_градиент_3);
        stroke: url(#_Безымянный_градиент_4);
      }

      .cls-7 {
        fill: url(#_Безымянный_градиент_7);
        stroke: url(#_Безымянный_градиент_8);
      }

      .cls-9 {
        opacity: .8;
      }

      .cls-10 {
        fill: url(#_Безымянный_градиент_2);
        fill-opacity: .15;
      }

      .cls-10, .cls-8 {
        stroke-width: 0px;
      }

      .cls-8 {
        fill: url(#_Безымянный_градиент);
      }
    </style>
    <linearGradient id="_Безымянный_градиент" data-name="Безымянный градиент" x1="63.36" y1="183.71" x2="338.11" y2="401.9" gradientTransform="translate(16 570) scale(1 -1)" gradientUnits="userSpaceOnUse">
      <stop offset="0" stop-color="#4772e6"/>
      <stop offset="1" stop-color="#8e54e9"/>
    </linearGradient>
    <mask id="mask" x="-195.55" y="-292" width="946.78" height="1111" maskUnits="userSpaceOnUse">
      <g id="mask0_2525_3383" data-name="mask0 2525 3383">
        <rect class="cls-8" width="439" height="550"/>
      </g>
    </mask>
    <linearGradient id="_Безымянный_градиент_2" data-name="Безымянный градиент 2" x1="79.36" y1="165.71" x2="354.11" y2="383.9" gradientTransform="translate(0 552) scale(1 -1)" gradientUnits="userSpaceOnUse">
      <stop offset="0" stop-color="#4772e6"/>
      <stop offset="1" stop-color="#8e54e9"/>
    </linearGradient>
    <linearGradient id="_Безымянный_градиент_3" data-name="Безымянный градиент 3" x1="-83.54" y1="-145.13" x2="170.22" y2="101.17" gradientTransform="translate(0 552) scale(1 -1)" gradientUnits="userSpaceOnUse">
      <stop offset="0" stop-color="#4772e6"/>
      <stop offset="1" stop-color="#8e54e9"/>
    </linearGradient>
    <linearGradient id="_Безымянный_градиент_4" data-name="Безымянный градиент 4" x1="-83.54" y1="-145.13" x2="170.22" y2="101.17" gradientTransform="translate(0 552) scale(1 -1)" gradientUnits="userSpaceOnUse">
      <stop offset="0" stop-color="#4772e6"/>
      <stop offset="1" stop-color="#8e54e9"/>
    </linearGradient>
    <linearGradient id="_Безымянный_градиент_5" data-name="Безымянный градиент 5" x1="-74.91" y1="-136.76" x2="161.93" y2="93.13" gradientTransform="translate(0 552) scale(1 -1)" gradientUnits="userSpaceOnUse">
      <stop offset="0" stop-color="#4772e6"/>
      <stop offset="1" stop-color="#8e54e9"/>
    </linearGradient>
    <linearGradient id="_Безымянный_градиент_6" data-name="Безымянный градиент 6" x1="-74.91" y1="-136.76" x2="161.93" y2="93.13" gradientTransform="translate(0 552) scale(1 -1)" gradientUnits="userSpaceOnUse">
      <stop offset="0" stop-color="#4772e6"/>
      <stop offset="1" stop-color="#8e54e9"/>
    </linearGradient>
    <linearGradient id="_Безымянный_градиент_7" data-name="Безымянный градиент 7" x1="-66.28" y1="-128.38" x2="153.65" y2="85.08" gradientTransform="translate(0 552) scale(1 -1)" gradientUnits="userSpaceOnUse">
      <stop offset="0" stop-color="#4772e6"/>
      <stop offset="1" stop-color="#8e54e9"/>
    </linearGradient>
    <linearGradient id="_Безымянный_градиент_8" data-name="Безымянный градиент 8" x1="-66.28" y1="-128.38" x2="153.65" y2="85.08" gradientTransform="translate(0 552) scale(1 -1)" gradientUnits="userSpaceOnUse">
      <stop offset="0" stop-color="#4772e6"/>
      <stop offset="1" stop-color="#8e54e9"/>
    </linearGradient>
    <linearGradient id="_Безымянный_градиент_9" data-name="Безымянный градиент 9" x1="380.34" y1="470.87" x2="634.1" y2="717.17" gradientTransform="translate(0 552) scale(1 -1)" gradientUnits="userSpaceOnUse">
      <stop offset="0" stop-color="#4772e6"/>
      <stop offset="1" stop-color="#8e54e9"/>
    </linearGradient>
    <linearGradient id="_Безымянный_градиент_10" data-name="Безымянный градиент 10" x1="380.34" y1="470.87" x2="634.1" y2="717.17" gradientTransform="translate(0 552) scale(1 -1)" gradientUnits="userSpaceOnUse">
      <stop offset="0" stop-color="#4772e6"/>
      <stop offset="1" stop-color="#8e54e9"/>
    </linearGradient>
    <linearGradient id="_Безымянный_градиент_11" data-name="Безымянный градиент 11" x1="388.97" y1="479.25" x2="625.81" y2="709.13" gradientTransform="translate(0 552) scale(1 -1)" gradientUnits="userSpaceOnUse">
      <stop offset="0" stop-color="#4772e6"/>
      <stop offset="1" stop-color="#8e54e9"/>
    </linearGradient>
    <linearGradient id="_Безымянный_градиент_12" data-name="Безымянный градиент 12" x1="388.97" y1="479.25" x2="625.81" y2="709.13" gradientTransform="translate(0 552) scale(1 -1)" gradientUnits="userSpaceOnUse">
      <stop offset="0" stop-color="#4772e6"/>
      <stop offset="1" stop-color="#8e54e9"/>
    </linearGradient>
    <linearGradient id="_Безымянный_градиент_13" data-name="Безымянный градиент 13" x1="397.59" y1="487.62" x2="617.52" y2="701.08" gradientTransform="translate(0 552) scale(1 -1)" gradientUnits="userSpaceOnUse">
      <stop offset="0" stop-color="#4772e6"/>
      <stop offset="1" stop-color="#8e54e9"/>
    </linearGradient>
    <linearGradient id="_Безымянный_градиент_14" data-name="Безымянный градиент 14" x1="397.59" y1="487.62" x2="617.52" y2="701.08" gradientTransform="translate(0 552) scale(1 -1)" gradientUnits="userSpaceOnUse">
      <stop offset="0" stop-color="#4772e6"/>
      <stop offset="1" stop-color="#8e54e9"/>
    </linearGradient>
  </defs>
  <g class="cls-9">
    <g class="cls-1">
      <g>
        <rect class="cls-10" width="439" height="550"/>
        <path class="cls-6" d="M286.85,571.5c0,136.43-107.89,247-240.95,247s-240.95-110.57-240.95-247,107.89-247,240.95-247,240.95,110.57,240.95,247Z"/>
        <path class="cls-5" d="M270.75,571.5c0,127.31-100.68,230.5-224.85,230.5s-224.85-103.19-224.85-230.5,100.68-230.5,224.85-230.5,224.85,103.19,224.85,230.5Z"/>
        <path class="cls-7" d="M254.65,571.5c0,118.2-93.48,214-208.76,214s-208.76-95.8-208.76-214,93.47-214,208.76-214,208.76,95.8,208.76,214Z"/>
        <path class="cls-2" d="M750.72-44.5c0,136.43-107.89,247-240.95,247s-240.95-110.57-240.95-247,107.89-247,240.95-247,240.95,110.57,240.95,247Z"/>
        <path class="cls-4" d="M734.62-44.5c0,127.31-100.68,230.5-224.85,230.5s-224.85-103.19-224.85-230.5,100.68-230.5,224.85-230.5,224.85,103.19,224.85,230.5Z"/>
        <path class="cls-3" d="M718.53-44.5c0,118.2-93.47,214-208.76,214s-208.76-95.8-208.76-214,93.48-214,208.76-214,208.76,95.8,208.76,214Z"/>
      </g>
    </g>
  </g>
</svg>