<svg width="1280" height="983" viewBox="0 0 1280 983" fill="none" xmlns="http://www.w3.org/2000/svg">
<mask id="mask0_3158_37490" style="mask-type:alpha" maskUnits="userSpaceOnUse" x="0" y="0" width="1280" height="983">
<path d="M0 50C0 22.3858 22.3858 0 50 0H1230C1257.61 0 1280 22.3858 1280 50V983H0V50Z" fill="black" fill-opacity="1"/>
</mask>
<g mask="url(#mask0_3158_37490)">
<path d="M0 50C0 22.3858 22.3858 0 50 0H1230C1257.61 0 1280 22.3858 1280 50V983H0V50Z" fill="url(#paint0_linear_3158_37490)" fill-opacity="1" stroke="white"/>
<path d="M1991.38 497.373C1991.38 779.522 1762.65 1008.25 1480.5 1008.25C1198.36 1008.25 969.63 779.522 969.63 497.373C969.63 215.225 1198.36 -13.502 1480.5 -13.502C1762.65 -13.502 1991.38 215.225 1991.38 497.373Z" stroke="url(#paint1_linear_3158_37490)" stroke-width="2"/>
<circle cx="1480.5" cy="497.373" r="681.5" stroke="url(#paint2_linear_3158_37490)" stroke-width="2"/>
<path d="M1735.44 497.373C1735.44 638.171 1621.3 752.311 1480.5 752.311C1339.71 752.311 1225.57 638.171 1225.57 497.373C1225.57 356.575 1339.71 242.436 1480.5 242.436C1621.3 242.436 1735.44 356.575 1735.44 497.373Z" stroke="url(#paint3_linear_3158_37490)" stroke-width="2"/>
</g>
<defs>
<linearGradient id="paint0_linear_3158_37490" x1="-26.3014" y1="491.5" x2="461.422" y2="-140.354" gradientUnits="userSpaceOnUse">
<stop stop-color="#E7EBFC"/>
<stop offset="1" stop-color="#E7EBFC"/>
</linearGradient>
<linearGradient id="paint1_linear_3158_37490" x1="947.594" y1="497.373" x2="1472.65" y2="-25.0131" gradientUnits="userSpaceOnUse">
<stop stop-color="#4772E6"/>
<stop offset="1" stop-color="#E7EBFC"/>
</linearGradient>
<linearGradient id="paint2_linear_3158_37490" x1="769.957" y1="497.373" x2="1470.03" y2="-199.142" gradientUnits="userSpaceOnUse">
<stop stop-color="#4772E6"/>
<stop offset="1" stop-color="#E7EBFC"/>
</linearGradient>
<linearGradient id="paint3_linear_3158_37490" x1="1214.05" y1="497.373" x2="1476.58" y2="236.18" gradientUnits="userSpaceOnUse">
<stop stop-color="#4772E6"/>
<stop offset="1" stop-color="#E7EBFC"/>
</linearGradient>
</defs>
</svg>
